<svg xmlns="http://www.w3.org/2000/svg" width="1024" height="1024" viewBox="0 0 1024 1024" role="img" aria-labelledby="title desc">
  <title id="title">Agent PPT app icon</title>
  <desc id="desc">A clean app icon combining a presentation slide with an AI sparkle mark.</desc>
  <defs>
    <linearGradient id="shell" x1="176" y1="128" x2="848" y2="896" gradientUnits="userSpaceOnUse">
      <stop offset="0" stop-color="#0EA5E9"/>
      <stop offset="0.52" stop-color="#2563EB"/>
      <stop offset="1" stop-color="#4F46E5"/>
    </linearGradient>
    <linearGradient id="paper" x1="300" y1="220" x2="724" y2="804" gradientUnits="userSpaceOnUse">
      <stop offset="0" stop-color="#FFFFFF"/>
      <stop offset="1" stop-color="#F3F7FF"/>
    </linearGradient>
    <filter id="softShadow" x="120" y="120" width="784" height="784" filterUnits="userSpaceOnUse" color-interpolation-filters="sRGB">
      <feDropShadow dx="0" dy="28" stdDeviation="34" flood-color="#0F172A" flood-opacity="0.24"/>
    </filter>
  </defs>

  <rect width="1024" height="1024" rx="224" fill="#E7E7E7"/>
  <rect x="116" y="116" width="792" height="792" rx="188" fill="url(#shell)" filter="url(#softShadow)"/>

  <g transform="translate(0 6)">
    <path d="M308 238h342l108 108v418c0 44.2-35.8 80-80 80H308c-44.2 0-80-35.8-80-80V318c0-44.2 35.8-80 80-80Z" fill="url(#paper)"/>
    <path d="M650 238v76c0 44.2 35.8 80 80 80h28" fill="#DCEBFF"/>
    <path d="M650 238v76c0 44.2 35.8 80 80 80h28" fill="none" stroke="#C6DAF8" stroke-width="18" stroke-linejoin="round"/>

    <rect x="314" y="424" width="286" height="34" rx="17" fill="#1E3A8A"/>
    <rect x="314" y="494" width="214" height="24" rx="12" fill="#64748B" opacity="0.82"/>
    <rect x="314" y="546" width="286" height="24" rx="12" fill="#64748B" opacity="0.52"/>

    <rect x="314" y="632" width="360" height="88" rx="28" fill="#EAF3FF"/>
    <rect x="344" y="662" width="116" height="28" rx="14" fill="#0EA5E9"/>
    <rect x="492" y="662" width="132" height="28" rx="14" fill="#2563EB" opacity="0.72"/>
  </g>

  <g transform="translate(616 222)">
    <path d="M112 24 132.5 79.5 188 100 132.5 120.5 112 176 91.5 120.5 36 100 91.5 79.5 112 24Z" fill="#FFFFFF"/>
    <path d="M42 166 51.7 192.3 78 202 51.7 211.7 42 238 32.3 211.7 6 202 32.3 192.3 42 166Z" fill="#BAE6FD"/>
  </g>
</svg>
